<svg id="LINKS" xmlns="http://www.w3.org/2000/svg" width="180" height="232"><style>.st0{fill:#55241a}.st1{fill:#9ec300}.st2{fill:#c0ce06}.st3{fill:#84d0f0}.st4{fill:#00aae6}.st5{fill:#3175b2}.st6{fill:#7c90a6}.st7{fill:#f6861e}.st8{fill:#f8b000}.st9{fill:#fe9b00}.st10{fill:#009fe3}.st11{fill:#ffc92f}.st12{fill:#FFF}</style><g id="XMLID_1645_"><g id="XMLID_1653_"><path id="XMLID_1654_" class="st0" d="M50.6 177.8H49v-3.9h1.6c4.2 0 7.6-3.4 7.6-7.6v-11.8h3.9v11.8c0 6.3-5.1 11.5-11.5 11.5z"/></g><g id="XMLID_1650_"><g id="XMLID_1651_"><path id="XMLID_1652_" class="st0" d="M46.4 159.2h5.3v64.1h-5.3z"/></g></g><g id="XMLID_1648_"><path id="XMLID_1649_" class="st1" d="M50.1 160.6c20.2 0 36.6-16.4 36.6-36.6V52.1c0-20.2-16.4-36.6-36.6-36.6-20.2 0-36.6 16.4-36.6 36.6V124c0 20.2 16.4 36.6 36.6 36.6z"/></g><g id="XMLID_1646_"><path id="XMLID_1647_" class="st2" d="M50.1 15.5c17 0 31.2 11.5 35.4 27.2-3.2-8.4-11.3-14.5-20.8-14.5-12.3 0-22.2 9.9-22.2 22.1v58.8c0 12.3-10 22.3-22.3 22.3-2.1 0-4.1-.3-6-.9-.4-2.2-.6-4.4-.6-6.7V52.1c-.1-20.2 16.3-36.6 36.5-36.6z"/></g><path class="st0" d="M49 189.8h-3c-8.3 0-15-6.7-15-15h4.8c0 5.6 4.6 10.1 10.1 10.1h3v4.9z"/><path class="st1" d="M37.1 176.8H25.3c-3.5 0-6.3-2.8-6.3-6.3s2.8-6.3 6.3-6.3h11.8c3.5 0 6.3 2.8 6.3 6.3s-2.9 6.3-6.3 6.3z"/></g><circle class="st1" cx="45.8" cy="218.1" r="2.2"/><path class="st1" d="M50.8 218.3l3.7-13.6-1.8 13.3z"/><path class="st1" d="M52.2 218.3l4-6.8-1.6 6.6zM46.5 218.1l-2.5-6.6.6 6.6zM44 217.8l-3.5-6.3 1.1 6.3z"/><path class="st1" d="M54.5 218l2.3-3.1-.7 3.1z"/><path class="st3" d="M73.2 224H24.9v-3.6c0-1.6 1.3-2.8 2.8-2.8h42.7c1.6 0 2.8 1.3 2.8 2.8v3.6z"/><path class="st4" d="M73.2 224H62.1v-6.4h8.3c1.6 0 2.8 1.3 2.8 2.8v3.6z"/><g id="XMLID_5_"><g id="XMLID_1404_"><path id="XMLID_1405_" class="st5" d="M111.12 217.092l-3.372.935-9.218-33.244 3.372-.935z"/></g><g id="XMLID_1402_"><path id="XMLID_1403_" class="st6" d="M89.8 215.2c0-1.6-1.3-2.9-2.9-2.9-1.6 0-2.9 1.3-2.9 2.9 0 1.6 1.3 2.9 2.9 2.9 1.6-.1 2.9-1.4 2.9-2.9z"/></g><g id="XMLID_1400_"><path id="XMLID_1401_" class="st6" d="M101.6 195.4h.2c.4-.1.6-.5.5-.9L100 187c-.1-.4-.5-.6-.9-.5-.4.1-.6.5-.5.9l2.3 7.5c.1.3.4.5.7.5z"/></g><g id="XMLID_1398_"><path id="XMLID_1399_" class="st0" d="M108.4 185.9H92s1.3 4.6 5.9 4.6c4.6 0 3.8-2.7 7.6-2.7s5.4-1.9 2.9-1.9z"/></g><g id="XMLID_48_"><path id="XMLID_1397_" class="st7" d="M132.9 189c.7 0 1.4-.3 1.9-.8 1-1 1-2.7 0-3.7l-19-18.6c-1-1-2.7-1-3.7 0s-1 2.7 0 3.7l19 18.6c.5.5 1.2.8 1.8.8z"/></g><g id="XMLID_46_"><circle id="XMLID_47_" class="st8" cx="135.1" cy="187.4" r="3.8"/></g><g id="XMLID_44_"><path id="XMLID_45_" class="st6" d="M130.4 194h.1c.4-.1.7-.4.6-.8l-1-6.4h5.3c.4 0 .7-.3.7-.7 0-.4-.3-.7-.7-.7h-6.1c-.2 0-.4.1-.5.3-.1.2-.2.4-.2.6l1.1 7.2c0 .3.3.5.7.5z"/></g><g id="XMLID_42_"><path id="XMLID_43_" class="st9" d="M136.6 197.4c2.1-.2 6-1.7 6-6.4 0-1.7-.5-3.1-1.6-4.1-1.8-1.7-4.5-1.6-4.6-1.6-.5 0-.8.4-.8.9s.4.8.9.8c0 0 2.1-.1 3.4 1.2.7.7 1.1 1.6 1.1 2.9 0 4.3-4.2 4.7-4.3 4.7-.5 0-.8.5-.8.9-.2.4.2.7.7.7z"/></g><g id="XMLID_32_"><path id="XMLID_33_" class="st9" d="M124 215c0 9.2 7.5 16.7 16.7 16.7s16.7-7.5 16.7-16.7-7.5-16.7-16.7-16.7S124 205.8 124 215zm2.5 0c0-7.9 6.4-14.3 14.3-14.3s14.3 6.4 14.3 14.3-6.4 14.3-14.3 14.3-14.3-6.4-14.3-14.3z"/></g><g id="XMLID_28_"><path id="XMLID_29_" class="st9" d="M70.2 215c0 9.2 7.5 16.7 16.7 16.7s16.7-7.5 16.7-16.7-7.5-16.7-16.7-16.7-16.7 7.5-16.7 16.7zm2.4 0c0-7.9 6.4-14.3 14.3-14.3s14.3 6.4 14.3 14.3-6.4 14.3-14.3 14.3c-7.8 0-14.3-6.4-14.3-14.3z"/></g><g id="XMLID_1378_"><path id="XMLID_1379_" class="st0" d="M110.1 218.1c-.4-.1-.7-.4-.8-.7l-9-24.4c-.1-.4-.1-.7.1-1s.6-.5.9-.5h28.9c.5 0 1 .4 1.1.9 0 .1 1.3 5.4 3.5 12.4.9 2.9 3.4 5.7 5.2 7.8.5.5.9 1 1.2 1.4.4.5.3 1.2-.2 1.6-.5.4-1.2.3-1.6-.2-.3-.4-.7-.9-1.2-1.4-2-2.2-4.6-5.3-5.7-8.6-.8-2.6-1.5-4.9-2.1-6.9l-19.6 19.3c-.2.2-.5.3-.8.3.3.1.2.1.1 0zm19.4-24.3h-26.4l7.8 21.2 19.3-18.9c-.4-1-.6-1.8-.7-2.3z"/></g><g id="XMLID_1376_"><path id="XMLID_1377_" class="st0" d="M110.4 218c.4 0 .8-.3.9-.8 0-.5-.3-.9-.8-.9l-22.4-2.1 14.1-21.1c.3-.4.2-.9-.2-1.2-.4-.3-.9-.2-1.2.2l-14.9 22.3c-.2.3-.2.6-.1.8.1.3.4.5.7.5l23.9 2.3c-.1 0 0 0 0 0z"/></g><g id="XMLID_1374_"><circle id="XMLID_1375_" class="st6" cx="111.1" cy="216.8" r="5.3"/></g><g id="XMLID_1372_"><path id="XMLID_1373_" class="st10" d="M109.7 187.5c-3 3.1-7.8 3.8-11.7 1.5a9.26 9.26 0 0 1-4.1-11l15.8 9.5z"/></g><g id="XMLID_1370_"><path id="XMLID_1371_" class="st11" d="M116.8 175.9l-7 12.4-16.2-9.7 8.2-11.2s5.5-8 12.4-3.8c7.1 4.1 2.6 12.3 2.6 12.3z"/></g><g id="XMLID_1368_"><path id="XMLID_1369_" class="st10" d="M111.7 211.3l4.3-15c.2-.7 0-1.4-.6-1.9l-12.3-9.6-2.2 2.8 11.3 8.9-4 13.8 3.5 1z"/></g><g id="XMLID_1366_"><path id="XMLID_1367_" class="st0" d="M108.4 209.9l5.5 2.3c.8.3 1.2 1.2.9 1.9-.3.7-1.2 1-1.9.7l-5.5-2.3 1-2.6z"/></g><path class="st8" d="M107.1 173.6l5.8 9.2 1.2-2.1z"/><g id="XMLID_26_"><path id="XMLID_27_" class="st11" d="M123.6 189c.7 0 1.4-.3 1.9-.8 1-1 1-2.7-.1-3.7l-16.1-15.6c-1-1-2.7-1-3.7.1-1 1-1 2.7.1 3.7l16.1 15.6c.5.4 1.1.7 1.8.7z"/></g><g id="XMLID_22_"><path id="XMLID_25_" class="st9" d="M124.2 197.4c2.1-.2 6-1.7 6-6.4 0-1.7-.5-3.1-1.6-4.1-1.8-1.7-4.5-1.6-4.6-1.6-.5 0-.8.4-.8.9s.4.8.9.8c0 0 2.1-.1 3.4 1.2.7.7 1.1 1.6 1.1 2.9 0 4.3-4.2 4.7-4.3 4.7-.5 0-.8.5-.8.9-.1.4.2.7.7.7z"/></g><g id="XMLID_15_"><circle id="XMLID_18_" class="st8" cx="125.7" cy="187.4" r="3.8"/></g><path id="XMLID_14_" class="st8" d="M117.8 167.4c-4.5 0-8.1-3.6-8.1-8.1v-7.4c0-4.5 3.6-8.1 8.1-8.1s8.1 3.6 8.1 8.1v7.4c0 4.4-3.6 8.1-8.1 8.1z"/><path id="XMLID_13_" class="st7" d="M128.4 142.2h-11.7c-1.4 0-2.6 1.2-2.6 2.6v5.4h9.5c2.6 0 4.8-2.1 4.8-4.8v-3.2z"/><path id="XMLID_7_" class="st7" d="M111 155.7h-1.3v-9.3c0-1.1.9-2 2-2h3.1v7.6c-.1 2.1-1.7 3.7-3.8 3.7z"/><path id="XMLID_6_" class="st12" d="M124.8 157.8c0 1.3-1.1 2.4-2.4 2.4-1.3 0-2.4-1.1-2.4-2.4h4.8z"/></g></svg>