<svg id="RECHTS" xmlns="http://www.w3.org/2000/svg" width="400" height="232"><style>.st0{fill:#85a600}.st1{fill:#55241a}.st2{fill:#9ec300}.st3{fill:#c0ce06}.st4{fill:#ffc92f}.st5{fill:#f8b000}.st6{fill:#ffe393}.st7{fill:#ffc865}.st8{fill:none;stroke:#96b432;stroke-width:.9288;stroke-miterlimit:10}.st9{fill:#84d0f0}.st10{fill:#00aae6}.st11{fill:#f6861e}.st12{fill:#977a74}.st13{fill:none;stroke:#FFF;stroke-width:2.7638;stroke-miterlimit:10}.st14{fill:#96b432}.st15{opacity:.12}.st16{fill:#FFF}.st17{fill:#744c44}.st18{opacity:.2}.st19{fill:#857b77}.st20{fill:#61342b}.st21{fill:#b3cf01}.st22{fill:#0082e6}.st23{fill:#d6681e}.st24{fill:#6d433a}.st25{fill:#1b98e9}.st26{fill:#e1f5f5}.st27{fill:#b0dde2}.st28{fill:#5dc9ef}.st29{fill:#ffd100}</style><path class="st0" d="M47.6 205.9v-3h-5.3c1.5-2 2.4-4.4 2.4-7.1 0-6.6-5.3-11.9-11.9-11.9s-11.9 5.3-11.9 11.9c0 .8.1 1.5.2 2.2-1-.4-2-.6-3.1-.6-4.7 0-8.4 3.8-8.4 8.4h38z"/><path class="st0" d="M13.9 205.9c-.9-2.5-3.2-4.3-6-4.3s-5.2 1.8-6 4.3h12z"/><g id="XMLID_64_"><g id="XMLID_67_"><path class="st1" d="M16.2 190.7h2.4v15.1h-2.4z" id="XMLID_68_"/></g><path class="st2" d="M16 191.8h1.8c8.1 0 14.6-6.5 14.6-14.6V143c0-8.1-6.5-14.6-14.6-14.6H16c-8.1 0-14.6 6.5-14.6 14.6v34.2c0 8.1 6.5 14.6 14.6 14.6z" id="XMLID_66_"/><path class="st3" d="M16.9 128.4c7.2 0 13.2 4.9 15 11.5-1.3-3.6-4.8-6.1-8.8-6.1-5.2 0-9.4 4.2-9.4 9.4v26.9c0 5.2-4.2 9.4-9.4 9.4-.9 0-1.7-.1-2.6-.4-.2-.9-.3-1.9-.3-2.8v-32.4c0-8.6 6.9-15.5 15.5-15.5z" id="XMLID_65_"/></g><path class="st4" d="M41.5 70h358.6v136H41.5z"/><path class="st5" d="M41.5 153.8h358.7v4.7H41.5zM41.5 165.9h358.7v4.7H41.5zM41.5 177.9h358.7v4.7H41.5zM41.5 71.3h358.6v2.8H41.5z"/><path class="st6" d="M360.4 70h2.3v135.9h-2.3z"/><path class="st5" d="M360.4 79.3h2.3v.6h-2.3zM360.4 101.3h2.3v.6h-2.3zM360.4 123.3h2.3v.6h-2.3zM360.4 147.8h2.3v.6h-2.3zM360.4 169.8h2.3v.6h-2.3zM360.4 191.7h2.3v.6h-2.3z"/><path class="st7" d="M360.4 71.3h2.3v2.8h-2.3z"/><path class="st0" d="M74.6 198.5v-.4c0-2.8-2.2-5-5-5-.8 0-1.5.2-2.2.5-.8-1.3-2.2-2.2-3.8-2.2-.8 0-1.5.2-2.1.6-.9-.9-2.1-1.5-3.4-1.5-2.4 0-4.3 1.8-4.6 4.1-.3-.1-.6-.1-.9-.1-2.3 0-4.1 1.7-4.4 3.9-.8 1-1.2 2.2-1.2 3.6 0 1.6.6 3 1.6 4h27.2c.8-.8 1.4-2 1.4-3.3 0-1.8-1.1-3.4-2.6-4.2z"/><path class="st8" d="M227.5 201.7v-4.2c0-3.2-2.6-5.7-5.7-5.7-3.9 0-7-3.1-7-7v-11.3c0-1.1-.9-2-2-2s-2-.9-2-2v-5.3c0-1.6 1.3-2.9 2.9-2.9 2.1 0 3.8-1.7 3.8-3.8v-6.1"/><path class="st4" d="M54 29.7h25.7v25.9H54z"/><path class="st9" d="M50 29.7h29.7v2.6H50z"/><path class="st10" d="M50 23.8h52.7v5.9H50z"/><path class="st11" d="M90.6 18.3h309.6v50.5h-369z"/><path class="st5" d="M133 187.4H60.3v.9c0 .9.7 1.6 1.6 1.6h69.6c.9 0 1.6-.7 1.6-1.6v-.9z"/><path class="st1" d="M61.8 143h69.8v43H61.8z"/><path class="st12" d="M66.1 149.1h57.3v30.1H66.1z"/><path class="st1" d="M75.5 190c-3.2 0-5.8-2.6-5.8-5.8V172c0-3.2 2.6-5.8 5.8-5.8 3.2 0 5.8 2.6 5.8 5.8v12.2c0 3.2-2.6 5.8-5.8 5.8z"/><path class="st1" d="M67.8 184.3c-3.2 0-5.8-2.6-5.8-5.8v-12.2c0-3.2 2.6-5.8 5.8-5.8 3.2 0 5.8 2.6 5.8 5.8v12.2c0 3.2-2.6 5.8-5.8 5.8zM122.1 185.7c0-.2 0-.4.1-.5.1-1.9-.4-3.6-1.3-5-.8-1.3-1-2.8-.6-4.2.2-.6.2-1.2.2-1.8 0-1.3-.4-2.6-1.1-3.6-.7-1.1-.9-2.4-.6-3.6.1-.4.2-.8.2-1.3 0-2.8-2.2-5.1-5-5.2-2.9-.1-5.4 2.3-5.4 5.2 0 .4.1.9.2 1.3.3 1.2.1 2.6-.6 3.6s-1.1 2.3-1.1 3.6c0 .6.1 1.2.2 1.8.4 1.5.1 3-.7 4.3-.8 1.3-1.3 2.8-1.3 4.5 0 .4 0 .7.1 1.1 5.5-.7 11.1-.1 16.7-.2z"/><path class="st10" d="M123.2 176.4l1.4-4.3h-5.5l1.4 4.3c-1.7.6-2.9 2.1-2.9 4 0 2.4 1.9 4.3 4.3 4.3s4.3-1.9 4.3-4.3c-.1-1.8-1.3-3.4-3-4z" id="XMLID_62_"/><path class="st13" d="M61.8 143h69.8v43H61.8zM84.1 143.3v42.4M61.9 153.4h22.3"/><path class="st14" d="M105.7 179.4c0 1.4-.7 2.6-.7 2.6s-.7-1.2-.7-2.6.7-2.6.7-2.6.7 1.2.7 2.6z"/><path class="st14" d="M104.6 180.5c.5 1 .4 2.1.4 2.1s-.9-.6-1.4-1.6c-.5-1-.4-2.1-.4-2.1s.9.5 1.4 1.6z"/><path class="st14" d="M105.3 180.5c-.5 1-.4 2.1-.4 2.1s.9-.6 1.4-1.6c.5-1 .4-2.1.4-2.1s-.9.5-1.4 1.6z"/><path class="st5" d="M105 184.6c-.8 0-1.4-.6-1.4-1.4v-1.5h2.8v1.5c0 .7-.7 1.4-1.4 1.4z"/><path class="st14" d="M111.9 179.4c0 1.4-.7 2.6-.7 2.6s-.7-1.2-.7-2.6.7-2.6.7-2.6.7 1.2.7 2.6z"/><path class="st14" d="M110.8 180.5c.5 1 .4 2.1.4 2.1s-.9-.6-1.4-1.6c-.5-1-.4-2.1-.4-2.1s.9.5 1.4 1.6z"/><path class="st14" d="M111.5 180.5c-.5 1-.4 2.1-.4 2.1s.9-.6 1.4-1.6c.5-1 .4-2.1.4-2.1s-.9.5-1.4 1.6z"/><path class="st5" d="M111.2 184.6c-.8 0-1.4-.6-1.4-1.4v-1.5h2.8v1.5c0 .7-.6 1.4-1.4 1.4z"/><path class="st15 st16" d="M62.2 177.5L97.9 143h33.4l-.7 8.2-34.7 35.2H61.8s.4-9.7.4-8.9z"/><path class="st11" d="M99.4 171.6h-5.6s1.4 1.5 1.4 2.8c0 1.3-2.4 2.8-2.4 5.9 0 3.1 1.8 4.3 3.8 4.3 1.9 0 3.8-1.1 3.8-4.3 0-3.1-2.4-4.6-2.4-5.9-.1-1.3 1.4-2.8 1.4-2.8z"/><path class="st1" d="M61.8 81.5h69.8v38.6H61.8z"/><path class="st17" d="M76.2 118.8c-1.4 0-2.6-1.2-2.6-2.6v-2.9h5.2v2.9c0 1.4-1.1 2.6-2.6 2.6z"/><circle class="st17" cx="76.3" cy="111.9" r="1.8"/><circle class="st17" cx="74.6" cy="109" r="1.8"/><circle class="st17" cx="76.6" cy="106.5" r="1.8"/><path class="st17" d="M99.4 87.8v-1.5h-1.2v-3.9h-.5v3.9h-1.2v1.5c-2 .6-3.5 2.5-3.5 4.7v.6h9.9v-.6c0-2.2-1.5-4-3.5-4.7z"/><path class="st11" d="M114.9 82.3v10.4c0 4.7 3.8 8.6 8.6 8.6V119h8.1V82.3h-16.7zM78.1 82.3v10.4c0 4.7-3.8 8.6-8.6 8.6V119h-8.1V82.3h16.7z"/><path class="st16" d="M132.9 121.4H60.4V80.1h72.5v41.3zm-69.7-2.7h67V82.9h-67v35.8z"/><path class="st5" d="M133 121.4H60.3v.9c0 .9.7 1.6 1.6 1.6h69.6c.9 0 1.6-.7 1.6-1.6v-.9z"/><path class="st16" d="M82.9 81.8h2.8v38.1h-2.8z"/><path class="st15 st16" d="M131.5 120.1V94l-26 26.1zM61.8 117.6l35.8-35.8-.3-.3H61.8z"/><path class="st17" d="M107 111.5V108h-1.7v3.5c-1 0-1.8.8-1.8 1.8v5.3h5.3v-5.3c.1-.9-.8-1.8-1.8-1.8zM100.2 113.5V111H99v2.5c-.7 0-1.3.6-1.3 1.3v3.9h3.9v-3.9c-.1-.7-.7-1.3-1.4-1.3z"/><path class="st5" d="M156.3 149.9h28.2v55.6h-28.2z"/><path class="st16" d="M185.9 206h-31v-57.5h31V206zm-28.2-2.1h25.5v-52.6h-25.5v52.6zM154.9 141.7h31v6.8h-31z"/><path class="st18 st19" d="M154.9 148.5h31v6h-31z"/><path class="st1" d="M165.5 158.9v9.2h10v-9.2h-10zm0 20.6h10v-9.2h-10v9.2zm0 11.3h10v-9.2h-10v9.2z"/><circle class="st16" cx="179.4" cy="176.9" r="1.6"/><path class="st15 st16" d="M165.5 179.5h3.5l6.5-6.5v-1.1h-10v7.6zm1.8-18.7l-1.8 1.8v5.6h10v-7.4h-8.2z"/><path class="st1" d="M154.5 81.4h31.9v10.4h-31.9z"/><path class="st20" d="M154.5 91.8h7.6l9.4-9.4-1-1h-16z"/><path class="st16" d="M187.8 93.2h-34.7V80h34.7v13.2zm-31.9-2.8H185v-7.6h-29.2v7.6z"/><path class="st1" d="M376 81.4h24.1v10.4H376z"/><path class="st20" d="M376 91.8h7.6l9.3-9.4-1-1H376z"/><path class="st5" d="M170.1 111.5h-6.6c-.6 0-1.1-.5-1.1-1.1v-1.5c0-.6.5-1.1 1.1-1.1h6.6c.6 0 1.1.5 1.1 1.1v1.5c0 .6-.5 1.1-1.1 1.1zM181.2 111.5h-6.6c-.6 0-1.1-.5-1.1-1.1v-1.5c0-.6.5-1.1 1.1-1.1h6.6c.6 0 1.1.5 1.1 1.1v1.5c0 .6-.5 1.1-1.1 1.1zM175.5 106.2h-6.6c-.6 0-1.1-.5-1.1-1.1v-1.5c0-.6.5-1.1 1.1-1.1h6.6c.6 0 1.1.5 1.1 1.1v1.5c0 .6-.5 1.1-1.1 1.1zM195.5 130.7h-6.6c-.6 0-1.1-.5-1.1-1.1v-1.5c0-.6.5-1.1 1.1-1.1h6.6c.6 0 1.1.5 1.1 1.1v1.5c0 .6-.5 1.1-1.1 1.1zM189.8 125.3h-6.6c-.6 0-1.1-.5-1.1-1.1v-1.5c0-.6.5-1.1 1.1-1.1h6.6c.6 0 1.1.5 1.1 1.1v1.5c0 .7-.4 1.1-1.1 1.1zM158.2 125.3h-6.6c-.6 0-1.1-.5-1.1-1.1v-1.5c0-.6.5-1.1 1.1-1.1h6.6c.6 0 1.1.5 1.1 1.1v1.5c0 .7-.5 1.1-1.1 1.1zM373.6 113.5h6.6c.6 0 1.1-.5 1.1-1.1v-1.5c0-.6-.5-1.1-1.1-1.1h-6.6c-.6 0-1.1.5-1.1 1.1v1.5c0 .6.5 1.1 1.1 1.1zM379.3 108.2h6.6c.6 0 1.1-.5 1.1-1.1v-1.5c0-.6-.5-1.1-1.1-1.1h-6.6c-.6 0-1.1.5-1.1 1.1v1.5c-.1.6.4 1.1 1.1 1.1zM400.2 121.6h-5c-.6 0-1.1.5-1.1 1.1v1.5c0 .6.5 1.1 1.1 1.1h5v-3.7zM46.4 189h-4.9v3.7h4.9c.6 0 1.1-.5 1.1-1.1v-1.5c.1-.6-.4-1.1-1.1-1.1zM294.4 187.4h-72.7v.9c0 .9.7 1.6 1.6 1.6h69.6c.9 0 1.6-.7 1.6-1.6v-.9z"/><path class="st1" d="M223.1 143h69.8v43h-69.8z"/><path class="st12" d="M227.5 149.1h57.3v30.1h-57.3z"/><path class="st1" d="M250.3 180.1l5.7-17.8c.2-.7 1.3-.7 1.5 0l5.1 17.8h-12.3zM224.9 180.1l6.9-21.5c.3-.9 1.5-.9 1.8 0l6.2 21.5h-14.9z"/><path class="st1" d="M260.5 180.1l5.7-17.8c.2-.7 1.3-.7 1.5 0l5.1 17.8h-12.3z"/><path class="st1" d="M271.1 172.3c.8-1.3 1.1-2.8.7-4.3-.2-.6-.2-1.2-.2-1.8 0-1.3.4-2.6 1.1-3.6.7-1.1.9-2.4.6-3.6-.1-.4-.2-.8-.2-1.3 0-2.9 2.5-5.3 5.4-5.2 2.8.1 5 2.4 5 5.2 0 .4-.1.9-.2 1.3-.3 1.2-.1 2.6.6 3.6s1.1 2.3 1.1 3.6c0 .6.4 1.7.2 2.2-.4 1.4.1 2.6.9 3.8.9 1.4.7 3.2.6 5-.2 4.4-3.9 8-8.4 8-4.7 0-8.5-3.8-8.5-8.4 0-1.6.5-3.2 1.3-4.5z" id="XMLID_61_"/><path class="st5" d="M281.3 178.2l1.1-3.3h-4.3l1.1 3.3c-1.3.4-2.3 1.7-2.3 3.1 0 1.8 1.5 3.3 3.3 3.3 1.8 0 3.3-1.5 3.3-3.3.1-1.4-.9-2.6-2.2-3.1z" id="XMLID_60_"/><path class="st16" d="M294.3 187.4h-72.5v-45.8h72.5v45.8zm-69.8-2.8h67v-40.2h-67v40.2z"/><path class="st16" d="M244.1 143.3h2.8v42.5h-2.8z"/><path class="st16" d="M223.3 152h22.3v2.8h-22.3z"/><path class="st14" d="M274.6 176.3c0 2.3-1.1 4.2-1.1 4.2s-1.1-1.9-1.1-4.2c0-2.3 1.1-4.2 1.1-4.2s1.1 1.9 1.1 4.2z"/><path class="st14" d="M272.9 177.9c.8 1.7.7 3.4.7 3.4s-1.4-1-2.2-2.6c-.8-1.7-.7-3.4-.7-3.4s1.4 1 2.2 2.6z"/><path class="st14" d="M274 177.9c-.8 1.7-.7 3.4-.7 3.4s1.4-1 2.2-2.6c.8-1.7.7-3.4.7-3.4s-1.4 1-2.2 2.6z"/><path class="st10" d="M273.4 184.6c-1.3 0-2.3-1-2.3-2.3v-2.4h4.5v2.4c.1 1.3-.9 2.3-2.2 2.3z"/><g><path class="st1" d="M237.7 175.1c.6 1.5-.5 3.4-.5 3.4s-2.1-.6-2.7-2.1-.1-2.4.7-2.7c1-.5 1.9-.1 2.5 1.4z"/><path class="st14" d="M231.55 174.257l2.43 6.778-.66.236-2.43-6.777zM234.412 173.675l.564 7.38-.698.052-.564-7.378z"/><path class="st14" d="M232.4 174.6c-.3 1.3-2 2-2 2s-1.1-1.4-.8-2.7c.3-1.3 1.1-1.7 1.9-1.5.8.2 1.3.9.9 2.2z"/><path class="st1" d="M235.77 175.987l.673.188-1.316 4.72-.674-.188z"/><path class="st14" d="M238.82 174.426l.6.362-3.767 6.252-.6-.36zM230.032 177.518l2.408 3.194-.558.42-2.41-3.192z"/><path class="st21" d="M235.4 173.4c-1 1.2-3.2 1.1-3.2 1.1s-.4-2.1.6-3.3 2-1.2 2.8-.6c.6.6.8 1.6-.2 2.8zM230.1 178.6c-1 1.2-2.7 1.6-2.7 1.6s.1-1.7 1.1-2.9 1.8-1.4 2.2-1.1c.5.3.4 1.1-.6 2.4z"/><path class="st11" d="M228.9 180.5c.9 2.4 3.2 4 5.9 4s5-1.7 5.9-4h-11.8z"/><path class="st14" d="M239.27 177.842l.086.695-2.283.28-.086-.694zM241.6 173.6c.6 1.5-.5 3.4-.5 3.4s-2.1-.6-2.7-2.1-.1-2.4.7-2.7c1-.4 1.9-.1 2.5 1.4z"/><path class="st14" d="M240.5 178.2c.8.9.9 2.1.9 2.1s-1.2-.2-1.9-1.1-.8-1.4-.5-1.7c.2-.3.7-.2 1.5.7z"/></g><g class="st15"><path class="st16" d="M223.5 177.5l35.7-34.5h33.4l-.7 8.2-34.7 35.2h-34.1s.4-9.7.4-8.9z"/></g><g><path class="st14" d="M252.805 167.607l.46 5.78-.4.033-.46-5.782z"/><path class="st14" d="M254.05 168.37l.362.17-1.277 2.714-.362-.17z"/><path class="st5" d="M253.1 184.6c-.9 0-1.6-.7-1.6-1.6v-4.8c0-.9.7-1.6 1.6-1.6.9 0 1.6.7 1.6 1.6v4.8c0 .9-.7 1.6-1.6 1.6z"/><path class="st5" d="M252.5 173.2h1.3v4.2h-1.3z"/><circle class="st5" cx="252.6" cy="167.3" r=".5"/><circle class="st5" cx="254.8" cy="168.3" r=".5"/><g><circle class="st5" cx="254.4" cy="169.5" r=".4"/></g><g><circle class="st5" cx="253.9" cy="170.4" r=".4"/></g></g><g><path class="st10" d="M294.2 128.8h-72.5V80h72.5v48.8z"/><path class="st22" d="M224.9 111.2h18.8v1.4h-18.8zM247.3 111.2h41.1v1.4h-41.1z"/><path class="st1" d="M248.2 83.7h42.5v26.6h-42.5z"/><path class="st15 st16" d="M252 83.7l-3.8 3.8v22.8h9.7l26.6-26.6z"/><path class="st17" d="M261.3 88.6v-5.8h-.6v5.8c-2.7.2-4.9 2.4-4.9 5.2 0 2.9 2.3 5.2 5.2 5.2 2.9 0 5.2-2.3 5.2-5.2 0-2.8-2.2-5.1-4.9-5.2zM269.6 105.9c0 2-.9 3.7-.9 3.7s-.9-1.6-.9-3.7c0-2 .9-3.7.9-3.7s.9 1.6.9 3.7z"/><path class="st17" d="M267.5 106.9c1 1.2 1.2 2.7 1.2 2.7s-1.5-.4-2.6-1.6-1.2-2.7-1.2-2.7 1.5.4 2.6 1.6zM271.1 107.2c-.9 1.3-2.4 1.8-2.4 1.8s0-1.6.9-2.9 2.4-1.8 2.4-1.8 0 1.6-.9 2.9z"/><path class="st17" d="M271.5 109c-1.4.7-3 .4-3 .4s.7-1.4 2.2-2.1c1.4-.7 3-.4 3-.4s-.8 1.4-2.2 2.1zM263.2 105.9c0 2.1-1.7 3.7-3.7 3.7s-3.7-1.7-3.7-3.7h7.4z"/><path class="st16" d="M289.8 84.6v24.9h-40.7V84.6h40.7m1.8-1.7h-44.2v28.4h44.2V82.9z"/><path class="st1" d="M225.8 83.7h17v26.6h-17z"/><path class="st15 st16" d="M225.8 110.3h17V92.9l-17 17z"/><path class="st16" d="M241.9 84.6v24.9h-15.3V84.6h15.3m1.7-1.7h-18.8v28.4h18.8V82.9z"/><g id="XMLID_2_"><g id="XMLID_24_"><g id="XMLID_37_"><path class="st1" d="M287.1 119h1.3v5.9h-1.3z" id="XMLID_38_"/></g><path class="st2" d="M287.6 119.1c2.5 0 4.5-2 4.5-4.5v-9.9c0-2.5-2-4.5-4.5-4.5s-4.5 2-4.5 4.5v9.9c-.1 2.5 2 4.5 4.5 4.5z" id="XMLID_36_"/><path class="st3" d="M287.6 100.2c2.1 0 3.8 1.4 4.4 3.4-.4-1-1.4-1.8-2.6-1.8-1.5 0-2.7 1.2-2.7 2.7v8.3c0 1.5-1.2 2.7-2.7 2.7-.3 0-.5 0-.7-.1 0-.3-.1-.5-.1-.8v-9.9c-.2-2.5 1.9-4.5 4.4-4.5z" id="XMLID_35_"/></g><path class="st1" d="M287.9 128.4h-.8c-1.2 0-2.2-.9-2.2-2.1l-.2-2.4c0-.3.2-.6.6-.6h4.4c.3 0 .6.3.6.6l-.2 2.4c0 1.2-1 2.1-2.2 2.1z" id="XMLID_23_"/></g><path class="st5" d="M295.9 129.9h-75.8v6.1c0 .9.7 1.6 1.6 1.6h72.5c.9 0 1.6-.7 1.6-1.6v-6.1z"/><path class="st16" d="M220.1 128.5h75.8v2.7h-75.8zM220 114.7h3.1v13.8H220z"/><circle class="st16" cx="221.6" cy="113.2" r="1.5"/><path class="st16" d="M292.7 114.7h3.1v13.8h-3.1z"/><circle class="st16" cx="294.2" cy="113.2" r="1.5"/><path class="st16" d="M221.6 114.7h72.5v.8h-72.5z"/><g><path class="st16" d="M221.6 125.9h72.5v.8h-72.5z"/></g><g><path class="st16" d="M227.2 126.5h-2v-4.2c0-.5.4-1 1-1 .5 0 1 .4 1 1v4.2z"/><path class="st16" d="M225.8 115.4h.8v6.6h-.8zM232 126.5h-2v-4.2c0-.5.4-1 1-1 .5 0 1 .4 1 1v4.2z"/><path class="st16" d="M230.6 115.4h.8v6.6h-.8zM236.9 126.5h-2v-4.2c0-.5.4-1 1-1 .5 0 1 .4 1 1v4.2z"/><path class="st16" d="M235.5 115.4h.8v6.6h-.8zM241.8 126.5h-2v-4.2c0-.5.4-1 1-1 .5 0 1 .4 1 1v4.2z"/><path class="st16" d="M240.4 115.4h.8v6.6h-.8zM246.6 126.5h-2v-4.2c0-.5.4-1 1-1 .5 0 1 .4 1 1v4.2z"/><path class="st16" d="M245.2 115.4h.8v6.6h-.8zM251.5 126.5h-2v-4.2c0-.5.4-1 1-1 .5 0 1 .4 1 1v4.2z"/><path class="st16" d="M250.1 115.4h.8v6.6h-.8zM256.3 126.5h-2v-4.2c0-.5.4-1 1-1 .5 0 1 .4 1 1v4.2z"/><path class="st16" d="M254.9 115.4h.8v6.6h-.8z"/><g><path class="st16" d="M261.2 126.5h-2v-4.2c0-.5.4-1 1-1 .5 0 1 .4 1 1v4.2z"/><path class="st16" d="M259.8 115.4h.8v6.6h-.8z"/></g><g><path class="st16" d="M266.1 126.5h-2v-4.2c0-.5.4-1 1-1 .5 0 1 .4 1 1v4.2z"/><path class="st16" d="M264.7 115.4h.8v6.6h-.8z"/></g><g><path class="st16" d="M270.9 126.5h-2v-4.2c0-.5.4-1 1-1 .5 0 1 .4 1 1v4.2z"/><path class="st16" d="M269.5 115.4h.8v6.6h-.8z"/></g><g><path class="st16" d="M275.8 126.5h-2v-4.2c0-.5.4-1 1-1 .5 0 1 .4 1 1v4.2z"/><path class="st16" d="M274.4 115.4h.8v6.6h-.8z"/></g><g><path class="st16" d="M280.7 126.5h-2v-4.2c0-.5.4-1 1-1 .5 0 1 .4 1 1v4.2z"/><path class="st16" d="M279.3 115.4h.8v6.6h-.8z"/></g><g><path class="st16" d="M285.5 126.5h-2v-4.2c0-.5.4-1 1-1 .5 0 1 .4 1 1v4.2z"/><path class="st16" d="M284.1 115.4h.8v6.6h-.8z"/></g><g><path class="st16" d="M290.4 126.5h-2v-4.2c0-.5.4-1 1-1 .5 0 1 .4 1 1v4.2z"/><path class="st16" d="M289 115.4h.8v6.6h-.8z"/></g></g><g><path class="st2" d="M249.2 113.1h-.2v-.3c0-.8-.7-1.5-1.5-1.5-.6 0-1 .3-1.3.8-.2-.5-.7-.8-1.3-.8-.4 0-.7.1-1 .4v-.1c0-1.1-.9-2-2-2s-2 .9-2 2v.2c-.2-.1-.5-.2-.7-.2-.5 0-1 .3-1.2.7-.3-.4-.7-.7-1.2-.7-.8 0-1.5.7-1.5 1.5v.1c-.6 0-1.1.5-1.1 1.1 0 .6.5 1.1 1.1 1.1.3 0 .5-.1.7-.2v1h12.4v-1c.2.1.4.2.6.2.6 0 1.1-.5 1.1-1.1.3-.7-.2-1.2-.9-1.2z"/><path class="st1" d="M233.4 114.3l.9 4.7c.1.8.8 1.3 1.6 1.3h13c.8 0 1.4-.6 1.6-1.3l.8-4.7h-17.9z"/></g><g><path class="st2" d="M278.9 113.1h-.2v-.3c0-.8-.7-1.5-1.5-1.5-.6 0-1 .3-1.3.8-.2-.5-.7-.8-1.3-.8-.4 0-.7.1-1 .4v-.1c0-1.1-.9-2-2-2s-2 .9-2 2v.2c-.2-.1-.5-.2-.7-.2-.5 0-1 .3-1.2.7-.3-.4-.7-.7-1.2-.7-.8 0-1.5.7-1.5 1.5v.1c-.6 0-1.1.5-1.1 1.1 0 .6.5 1.1 1.1 1.1.3 0 .5-.1.7-.2v1h12.4v-1c.2.1.4.2.6.2.6 0 1.1-.5 1.1-1.1.2-.7-.3-1.2-.9-1.2z"/><path class="st1" d="M263 114.3l.9 4.7c.1.8.8 1.3 1.6 1.3h13c.8 0 1.4-.6 1.6-1.3l.8-4.7H263z"/></g></g><g><path class="st23" d="M114.6 188.6h1.8v10.9h-1.8zM146.8 188.6h1.8v10.9h-1.8z"/><path class="st11" d="M149.6 197.3h-36c-.6 0-1-.5-1-1v-1.9c0-.6.5-1 1-1h36c.6 0 1 .5 1 1v1.9c.1.5-.4 1-1 1zM149.6 192.1h-36c-.6 0-1-.5-1-1v-1.9c0-.6.5-1 1-1h36c.6 0 1 .5 1 1v1.9c.1.6-.4 1-1 1zM114.6 206l1.7-5.7h-1.9l-1.7 5.7zM150.4 206l-1.7-5.7h-1.9l1.7 5.7z"/><path class="st23" d="M113.7 202.7h1.9l.7-2.4h-1.9zM148.7 200.3h-1.9l.7 2.4h1.9z"/><path class="st11" d="M151.4 200.6H112c-.6 0-1-.4-1-1s.4-1 1-1h39.4c.6 0 1 .4 1 1s-.5 1-1 1z"/></g><g><path class="st10" d="M317.7 149.9h28.2v55.6h-28.2z"/><path class="st16" d="M347.3 206h-31v-57.5h31V206zm-28.3-2.1h25.5v-52.6H319v52.6z"/><path class="st1" d="M322.6 154.5v29h18.1v-29h-18.1zm0 46.4h18.1v-14h-18.1v14z"/><path class="st4" d="M342.6 180.2c-.5 0-.9-.4-.9-.9v-3.2c0-.5.4-.9.9-.9s.9.4.9.9v3.2c.1.5-.4.9-.9.9z"/><path class="st20" d="M322.6 154.5V174l18.1-18.1v-1.4h-18.1zm0 46.4h4.7l13.4-13.4v-.6h-18.1v14zm0-17.4h18.1v-18.3l-18.1 18.1v.2z"/><path class="st16" d="M316.3 141.7h31v6.8h-31z"/><path class="st18 st19" d="M316.3 148.5h31v6h-31z"/></g><g><path class="st5" d="M377.7 149.9h22.4v55.6h-22.4z"/><path class="st16" d="M400 203.9h-20.9v-52.6H400v-2.8h-23.7V206H400zM376.3 141.7H400v6.8h-23.7z"/><path class="st18 st19" d="M376.3 148.5H400v6h-23.7z"/><circle class="st11" cx="391.9" cy="168.2" r="6.5"/><circle class="st4" cx="391.9" cy="167" r="6.5"/><circle class="st1" cx="391.9" cy="167" r="5.4"/><path class="st24" d="M391.9 161.7c-3 0-5.4 2.4-5.4 5.4 0 1.4.5 2.7 1.4 3.6l7.6-7.6c-.9-.9-2.2-1.4-3.6-1.4z"/><g><circle class="st1" cx="382.7" cy="178.7" r="1.5"/></g><g><path class="st4" d="M386.8 195.8h10v1.8h-10z"/></g></g><g><path class="st10" d="M308.8 80h17.8v30h-17.8V80zm15.2 2.6h-12.6v24.8H324V82.6z"/><path class="st5" d="M308.8 110h17.8v1.2h-17.8z"/><path class="st1" d="M311.4 82.6H324v24.8h-12.6z"/><path class="st10" d="M330.2 80H348v30h-17.8V80zm15.2 2.6h-12.6v24.8h12.6V82.6z"/><path class="st5" d="M330.2 110H348v1.2h-17.8z"/><path class="st1" d="M332.8 82.6h12.6v24.8h-12.6z"/><path class="st15 st16" d="M311.4 107.4H324V85l-12.6 12.6v9.8zm21.4-24.8v20.7l12.6-12.6v-8.1h-12.6z"/><path class="st16" d="M324.8 108.2h-14.3V81.8h14.3v26.4zm-12.6-1.6h11V83.4h-11v23.2zM346.2 108.2H332V81.8h14.3v26.4zm-12.6-1.6h11V83.4h-11v23.2z"/><path class="st5" d="M341.6 102.1l.7-2.3h-2.9l.7 2.3c-.9.3-1.5 1.1-1.5 2.1 0 1.2 1 2.3 2.3 2.3 1.2 0 2.3-1 2.3-2.3-.1-1-.7-1.8-1.6-2.1z" id="XMLID_39_"/><path class="st16" d="M334.3 106.6l2.4-4.1 2.3 4.1z"/><circle class="st1" cx="316.9" cy="104.5" r="2"/></g><g><path class="st1" d="M91.784 200.888l1.342 1.345-4.035 4.026-1.34-1.346z"/><path class="st1" d="M88.018 197.524l2.007 11.83-1.873.32-2.008-11.832z"/><circle class="st2" cx="82.3" cy="186.5" r="6.4"/><circle class="st2" cx="84.1" cy="195.8" r="6.4"/><circle class="st2" cx="88.8" cy="178.8" r="6.7"/><circle class="st2" cx="99.1" cy="182.3" r="6.7"/><circle class="st2" cx="101.9" cy="191.5" r="6.7"/><circle class="st2" cx="89.9" cy="192.6" r="6.7"/><circle class="st2" cx="94.9" cy="197.7" r="6.7"/><circle class="st2" cx="92.9" cy="187.4" r="6.7"/><g><path class="st1" d="M78.502 174.437l4.61 9.1-1.695.858-4.61-9.1z"/></g><g><circle class="st2" cx="73.5" cy="173.3" r="3.4"/></g><g><circle class="st2" cx="78" cy="169.8" r="3.4"/></g><g><circle class="st2" cx="78" cy="174.4" r="3.4"/></g></g><g><path class="st1" d="M235.9 30.9h46.4v23.4h-46.4z"/><path class="st10" d="M235.9 43.9c1.1-.2 1.3-1 2.8-1 1.7 0 1.7 1.1 3.4 1.1s1.7-1.1 3.4-1.1 1.7 1.1 3.4 1.1 1.7-1.1 3.4-1.1 1.7 1.1 3.4 1.1 1.7-1.1 3.4-1.1 1.7 1.1 3.5 1.1 1.7-1.1 3.5-1.1 1.7 1.1 3.5 1.1c1.7 0 1.7-1.1 3.4-1.1s1.7 1.1 3.5 1.1c1.7 0 1.7-1.1 3.5-1.1 1.2 0 1.5.5 2.2.8V30.9h-46.4v13z"/><path class="st25" d="M235.9 31.8h45.9v2.1h-45.9z"/><path class="st15 st16" d="M235.9 54.3h17l23.3-23.4h-21.5l-18.8 18.9z"/><path class="st16" d="M283.6 55.7h-49.2V29.5h49.2v26.2zm-46.4-2.8h43.6V32.3h-43.6v20.6z"/><path class="st16" d="M257.5 30.9h2.8v23.4h-2.8z"/><path class="st26" d="M234.5 29.5h49.2v2.8h-49.2z"/><path class="st16" d="M232.7 23.8h52.7v5.9h-52.7z"/></g><g><path class="st4" d="M164.1 6.1h14.6v17h-14.6z"/><path class="st16" d="M164.1 23.1h14.6v1.8h-14.6z"/></g><g><path class="st4" d="M321.2 6.1h14.6v17h-14.6z"/><path class="st16" d="M321.2 23.1h14.6v1.8h-14.6z"/></g><g id="XMLID_1_"><g id="XMLID_55_"><g id="XMLID_58_"><path class="st1" d="M304.8 193.8h1.7v7.7h-1.7z" id="XMLID_59_"/></g><path class="st2" d="M305.4 194c3.3 0 5.9-2.7 5.9-5.9V175c0-3.3-2.7-5.9-5.9-5.9-3.3 0-5.9 2.7-5.9 5.9v13.1c0 3.2 2.6 5.9 5.9 5.9z" id="XMLID_57_"/><path class="st3" d="M305.4 169.1c2.7 0 5.1 1.9 5.7 4.4-.5-1.4-1.8-2.3-3.4-2.3-2 0-3.6 1.6-3.6 3.6v10.9c0 2-1.6 3.6-3.6 3.6-.3 0-.7-.1-1-.1-.1-.4-.1-.7-.1-1.1V175c.1-3.3 2.7-5.9 6-5.9z" id="XMLID_56_"/></g><path class="st16" d="M305.9 206.2h-1c-1.5 0-2.8-1.2-2.9-2.8l-.2-3.1c0-.5.3-.8.8-.8h5.8c.5 0 .8.4.8.8l-.2 3.1c-.2 1.6-1.5 2.8-3.1 2.8z" id="XMLID_50_"/></g><g><circle class="st14" cx="364.2" cy="177" r="2.1"/><circle class="st14" cx="365.8" cy="180.9" r="2.1"/><circle class="st14" cx="360.3" cy="187.9" r="2.1"/><circle class="st14" cx="363.7" cy="182.6" r="2.1"/><path class="st14" d="M355.3 192.3c-.2 0-.3-.1-.4-.3-.1-.3-.2-.8.6-1.5.9-.8 2-1.4 3-2.1 1.9-1.2 3.7-2.3 4.7-4.1 1.3-2.4.8-5.4.3-8-.1-.3.1-.5.4-.5.3-.1.5.1.5.4.6 2.8 1.1 6-.4 8.6-1.1 2-3.1 3.3-5 4.5-1 .6-2 1.3-2.9 2-.3.2-.3.4-.3.4.1.2 0 .5-.2.6-.2-.1-.3 0-.3 0z"/><circle class="st14" cx="355.9" cy="145.7" r="2.1"/><circle class="st14" cx="358.1" cy="149.3" r="2.1"/><circle class="st14" cx="354.4" cy="151.4" r="2.1"/><circle class="st0" cx="356.7" cy="155.5" r="2.1"/><circle class="st3" cx="353.5" cy="156.7" r="2.1"/><circle class="st3" cx="356.7" cy="160.8" r="2.1"/><circle class="st14" cx="354.5" cy="161.8" r="2.1"/><circle class="st14" cx="352.4" cy="164.4" r="2.1"/><circle class="st14" cx="355.9" cy="163.9" r="2.1"/><circle class="st0" cx="355.7" cy="167.1" r="2.1"/><circle class="st14" cx="352.4" cy="169" r="2.1"/><circle class="st3" cx="355.7" cy="170.3" r="2.1"/><circle class="st14" cx="356.7" cy="179.1" r="2.1"/><circle class="st0" cx="354.4" cy="179.1" r="2.1"/><circle class="st0" cx="354.5" cy="183" r="2.1"/><circle class="st3" cx="357.8" cy="184" r="2.1"/><circle class="st14" cx="353.5" cy="174.3" r="2.1"/><circle class="st14" cx="356.5" cy="152.3" r="2.1"/><path class="st14" d="M354.1 206.5c-.3 0-.5-.2-.5-.5 0-2.4.7-3.7 1.4-4.9.6-1.1 1.2-2.2 1.2-4.4s-.6-3.3-1.2-4.4c-.7-1.2-1.4-2.4-1.4-4.9 0-2.4.7-3.7 1.4-4.9.6-1.1 1.2-2.2 1.2-4.4s-.6-3.3-1.2-4.4c-.7-1.2-1.4-2.4-1.4-4.9 0-2.4.7-3.7 1.4-4.9.6-1.1 1.2-2.2 1.2-4.4s-.6-3.3-1.2-4.4c-.7-1.2-1.4-2.4-1.4-4.9s.7-3.7 1.4-4.9c.6-1.1 1.2-2.2 1.2-4.4 0-.3.2-.5.5-.5s.5.2.5.5c0 2.4-.7 3.7-1.4 4.9-.6 1.1-1.2 2.2-1.2 4.4s.6 3.3 1.2 4.4c.7 1.2 1.4 2.4 1.4 4.9 0 2.4-.7 3.7-1.4 4.9-.6 1.1-1.2 2.2-1.2 4.4s.6 3.3 1.2 4.4c.7 1.2 1.4 2.4 1.4 4.9 0 2.4-.7 3.7-1.4 4.9-.6 1.1-1.2 2.2-1.2 4.4s.6 3.3 1.2 4.4c.7 1.2 1.4 2.4 1.4 4.9s-.7 3.7-1.4 4.9c-.6 1.1-1.2 2.2-1.2 4.4-.1.3-.3.5-.5.5z"/></g><g><path class="st14" d="M214.8 183.1H213c-2.5 0-4.5-2-4.5-4.5V177h.9v1.5c0 2 1.6 3.6 3.6 3.6h1.7v1z"/></g><g><circle class="st14" cx="216.6" cy="152.5" r="1.8"/></g><g><circle class="st0" cx="218.4" cy="155.5" r="1.8"/></g><g><circle class="st14" cx="215.9" cy="163.6" r="1.8"/></g><g><circle class="st14" cx="212.9" cy="183.7" r="1.8"/></g><g><circle class="st14" cx="213.7" cy="174.3" r="1.6"/></g><g><circle class="st14" cx="215.3" cy="149.9" r="1.1"/></g><g><circle class="st0" cx="214.8" cy="177.8" r="2.4"/></g><g><circle class="st14" cx="209" cy="177" r="1.1"/></g><g><circle class="st14" cx="200.1" cy="185.4" r="1.1"/></g><g><circle class="st14" cx="209" cy="180.4" r="1.1"/></g><g><circle class="st14" cx="215.3" cy="181.3" r="1.8"/></g><g><circle class="st14" cx="212.7" cy="165.4" r="1.8"/></g><g><circle class="st14" cx="211.9" cy="170.1" r="1.8"/></g><g><circle class="st14" cx="215.9" cy="187" r="1.8"/></g><g><circle class="st0" cx="216.6" cy="174" r="2.4"/></g><g><circle class="st0" cx="219" cy="158.9" r="2.4"/></g><g><circle class="st14" cx="191.8" cy="192.8" r="1.8"/></g><g><circle class="st14" cx="211.6" cy="162" r="1.8"/></g><g><circle class="st0" cx="194.6" cy="182.6" r="2.4"/></g><g><circle class="st14" cx="190.1" cy="188.8" r="2.4"/></g><g><circle class="st14" cx="202.5" cy="181.3" r="2.4"/></g><g><circle class="st14" cx="198.9" cy="180.9" r="2.4"/></g><g><circle class="st14" cx="210.3" cy="165.5" r="2.4"/></g><g><path class="st14" d="M191.4 206h-.9v-15.4c0-3.9 3.2-7.1 7.1-7.1 3.4 0 6.2-2.8 6.2-6.2v-5.8h.9v5.8c0 3.9-3.2 7.1-7.1 7.1-3.4 0-6.2 2.8-6.2 6.2V206z"/></g><g><path class="st6" d="M198.9 70h2.3v135.9h-2.3z"/><path class="st5" d="M198.9 79.3h2.3v.6h-2.3zM198.9 101.3h2.3v.6h-2.3zM198.9 123.3h2.3v.6h-2.3zM198.9 147.8h2.3v.6h-2.3zM198.9 169.8h2.3v.6h-2.3zM198.9 191.7h2.3v.6h-2.3z"/><path class="st7" d="M198.9 71.3h2.3v2.8h-2.3z"/></g><g><circle class="st14" cx="208.4" cy="190.5" r="3.5"/></g><g><circle class="st14" cx="206.4" cy="195.5" r="3.5"/></g><g><circle class="st14" cx="214" cy="195.6" r="5.1"/></g><g><path class="st14" d="M218.8 207c-.4-2.1-2.2-3.7-4.4-3.7-.5 0-1 .1-1.5.3-.1-3.3-2.8-5.9-6.1-5.9-3.4 0-6.2 2.8-6.2 6.2 0 .3 0 .5.1.7-.5-.3-1.1-.5-1.7-.5-1.8 0-3.2 1.3-3.6 2.9h23.4z"/></g><g><circle class="st3" cx="214.8" cy="171.1" r="1.8"/></g><g><circle class="st3" cx="195.2" cy="185.1" r="2.4"/></g><g><circle class="st3" cx="216.1" cy="158" r="1.8"/></g><g><path class="st2" d="M300.1 195.8h-94.7c-2.9 0-5.2 2.3-5.2 5.2v14.3h105.2V201c-.1-2.9-2.4-5.2-5.3-5.2z"/><path class="st3" d="M205.3 206.2c0-3.3 2.7-5.9 5.9-5.9h83.3c2.5 0 4.5-2 4.5-4.5h-93.6c-2.5 0-4.6 1.8-5.1 4.1l-.1 11.5c2.8 0 5.1-2.3 5.1-5.2z"/></g><g><path class="st2" d="M70.3 195.8H29.5c-2.9 0-5.2 2.3-5.2 5.2v14.3h51.3V201c-.1-2.9-2.4-5.2-5.3-5.2z"/><path class="st3" d="M29.4 206.2c0-3.3 2.7-5.9 5.9-5.9h29.4c2.5 0 4.5-2 4.5-4.5H29.5c-2.5 0-4.6 1.8-5.1 4.1l-.1 11.5c2.8 0 5.1-2.3 5.1-5.2z"/></g><g><path class="st2" d="M400.5 195.8h-42.9c-2.9 0-5.2 2.3-5.2 5.2v14.3h48.1v-19.5z"/><path class="st3" d="M356.7 195.9c-.3 0-.5.1-.8.2h-.1c-.2.1-.5.2-.7.3h-.1c-.2.1-.5.3-.7.5l-.6.6-.1.1c-.2.2-.3.4-.5.6v.1c-.1.2-.3.5-.4.7-.1.3-.2.6-.3.8l-.1 11.5c2.8 0 5.1-2.3 5.1-5.1 0-3.3 2.7-5.9 5.9-5.9h37v-4.5h-42.9c-.3 0-.6 0-.8.1h.1z"/></g><g><path class="st27" d="M342.9 212.4l-2-3.8h-18.5l-2 3.8z"/></g><g><path class="st0" d="M116.9 215.3v-2.1h-3.7c1-1.4 1.7-3.1 1.7-4.9 0-4.6-3.7-8.3-8.3-8.3-4.6 0-8.3 3.7-8.3 8.3 0 .5.1 1.1.2 1.6-.7-.3-1.4-.4-2.2-.4-3.2 0-5.9 2.6-5.9 5.9h26.5z"/><path class="st2" d="M134.6 215.3c.1-.3.1-.6.1-1 0-2.7-2.2-4.8-4.8-4.8-1.1 0-2.2.4-3 1v-.5c0-2.7-2.2-4.8-4.8-4.8-.9 0-1.6.2-2.3.6-.3-2.4-2.3-4.2-4.8-4.2-2.7 0-4.8 2.2-4.8 4.8 0 .4.1.8.1 1.1-.3 0-.5-.1-.8-.1-3.3 0-6 2.7-6 6 0 .6.1 1.2.2 1.7h30.9z"/></g><g><path class="st16" d="M31.2 68.8h369v2.5h-369z"/></g><g><path class="st0" d="M145.6 215.3c-.7-1.8-2.5-3.2-4.6-3.2-2.1 0-3.9 1.3-4.6 3.2h9.2z"/></g><g><path class="st2" d="M143.4 215.4h6.6c1.2-2.8 1.9-6.1 1.9-6.1s-.7.6-1.7 1.5c.2-2.2.1-4 .1-4s-1.2 1.6-2.3 3.6c-.2-3.3-1.4-6.8-1.4-6.8s-1.6 4.5-1.7 8v.4c-1.9-2.5-4.6-4.6-4.6-4.6s1 4.7 2.9 7.7c.1.1.1.2.2.3z"/></g><g><path class="st0" d="M156.2 215.3c-.6-1.5-2.1-2.6-3.8-2.6-1.7 0-3.2 1.1-3.8 2.6h7.6z"/></g><g id="XMLID_1585_"><path class="st16" d="M58.7 140.2h69.8V156H58.7z" id="XMLID_1613_"/><g id="XMLID_1610_"><path class="st16" d="M58.5 140.2h8V156h-8z" id="XMLID_1612_"/><path class="st9" d="M66.4 156.1c0 2.1-1.7 3.9-3.9 3.9s-3.9-1.7-3.9-3.9h7.8z" id="XMLID_1611_"/></g><g id="XMLID_1607_"><path class="st28" d="M66.4 140.2h7.8V156h-7.8z" id="XMLID_1609_"/><path class="st10" d="M74.2 156.1c0 2.1-1.7 3.9-3.9 3.9-2.1 0-3.9-1.7-3.9-3.9h7.8z" id="XMLID_1608_"/></g><g id="XMLID_1604_"><path class="st16" d="M74.2 140.2H82V156h-7.8z" id="XMLID_1606_"/><path class="st9" d="M81.9 156.1c0 2.1-1.7 3.9-3.9 3.9s-3.9-1.7-3.9-3.9h7.8z" id="XMLID_1605_"/></g><g id="XMLID_1601_"><path class="st28" d="M81.9 140.2h7.8V156h-7.8z" id="XMLID_1603_"/><path class="st10" d="M89.7 156.1c0 2.1-1.7 3.9-3.9 3.9-2.1 0-3.9-1.7-3.9-3.9h7.8z" id="XMLID_1602_"/></g><g id="XMLID_1598_"><path class="st16" d="M89.7 140.2h7.8V156h-7.8z" id="XMLID_1600_"/><path class="st9" d="M97.5 156.1c0 2.1-1.7 3.9-3.9 3.9s-3.9-1.7-3.9-3.9h7.8z" id="XMLID_1599_"/></g><g id="XMLID_1595_"><path class="st28" d="M97.5 140.2h7.8V156h-7.8z" id="XMLID_1597_"/><path class="st10" d="M105.2 156.1c0 2.1-1.7 3.9-3.9 3.9-2.1 0-3.9-1.7-3.9-3.9h7.8z" id="XMLID_1596_"/></g><g id="XMLID_1592_"><path class="st16" d="M105.2 140.2h7.8V156h-7.8z" id="XMLID_1594_"/><path class="st9" d="M113 156.1c0 2.1-1.7 3.9-3.9 3.9s-3.9-1.7-3.9-3.9h7.8z" id="XMLID_1593_"/></g><g id="XMLID_1589_"><path class="st28" d="M113 140.2h7.8V156H113z" id="XMLID_1591_"/><path class="st10" d="M120.7 156.1c0 2.1-1.7 3.9-3.9 3.9-2.1 0-3.9-1.7-3.9-3.9h7.8z" id="XMLID_1590_"/></g><g id="XMLID_40_"><path class="st28" d="M128.7 140.2h7.8V156h-7.8z" id="XMLID_70_"/><path class="st10" d="M136.4 156.1c0 2.1-1.7 3.9-3.9 3.9-2.1 0-3.9-1.7-3.9-3.9h7.8z" id="XMLID_69_"/></g><g id="XMLID_1586_"><path class="st16" d="M120.7 140.2h8V156h-8z" id="XMLID_1588_"/><path class="st9" d="M128.5 156.1c0 2.1-1.7 3.9-3.9 3.9s-3.9-1.7-3.9-3.9h7.8z" id="XMLID_1587_"/></g></g><g id="XMLID_1481_"><path class="st29" d="M149.9 165.7l.7-4.9H143l.7 4.9z" id="XMLID_1492_"/><path class="st16" d="M149.9 165.7l-.3 1.4H144l-.3-1.4z" id="XMLID_1491_"/><path class="st1" d="M146.8 168.8c-.2 0-.4-.2-.4-.4v-7.6c0-.2.2-.4.4-.4s.4.2.4.4v7.6c0 .2-.2.4-.4.4z" id="XMLID_1485_"/><path class="st1" d="M150 167.7h-6.4l-1.1-7.3h8.6l-1.1 7.3zm-5.6-.9h4.9l.8-5.6h-6.6l.9 5.6z" id="XMLID_1484_"/><path class="st1" d="M146.6 157.9l-4.6 2.2c-.5.2-.3 1 .2 1h9.1c.6 0 .7-.8.2-1l-4.6-2.2h-.3z" id="XMLID_1483_"/><path class="st1" d="M145.2 165.3h3.1v1.9h-3.1z" id="XMLID_1482_"/></g><g><path class="st16" d="M400 90.4h-22.7v-7.6H400V80h-25.4v13.2H400z"/></g></svg>